# xmcd CD database file
#
# Track frame offsets:
#	150
#	24600
#	43164
#	62064
#	76164
#	96503
#	113907
#	136332
#	160903
#	177553
#	192235
#	217680
#
# Disc length: 3052 seconds
#
# Revision: 0
# Processed by: cddbd v1.5.2PL0 Copyright (c) Steve Scherf et al.
# Submitted via: CDex 1.70beta2
#
DISCID=a40bea0c
DTITLE=Taneytown - East Of Everything
DYEAR=2008
DGENRE=Country
TTITLE0=Picking Up The Pieces
TTITLE1=Lie To Me
TTITLE2=Train Of Thought
TTITLE3=Perfect Sins
TTITLE4=Road Song
TTITLE5=Dog Eat Dog
TTITLE6=Moonlight Serenade
TTITLE7=It Was Cold That Night
TTITLE8=Just Not Yet
TTITLE9=I Don't Need You Anymore
TTITLE10=Harvest Time
TTITLE11=Zhe Way I Feel Tonight
EXTD=YEAR: 2008
EXTT0=
EXTT1=
EXTT2=
EXTT3=
EXTT4=
EXTT5=
EXTT6=
EXTT7=
EXTT8=
EXTT9=
EXTT10=
EXTT11=
PLAYORDER=
